<!DOCTYPE svg PUBLIC "-//W3C//DTD SVG 1.1//EN" "http://www.w3.org/Graphics/SVG/1.1/DTD/svg11.dtd">
<!-- Uploaded to: SVG Repo, www.svgrepo.com, Transformed by: SVG Repo Mixer Tools -->
<svg fill="#ffffff" width="214px" height="214px" viewBox="-0.72 -0.72 25.44 25.44" role="img" xmlns="http://www.w3.org/2000/svg" stroke="#ffffff">
<g id="SVGRepo_bgCarrier" stroke-width="0"/>
<g id="SVGRepo_tracerCarrier" stroke-linecap="round" stroke-linejoin="round" stroke="#CCCCCC" stroke-width="1.152">
<path d="m20.557 18.87 2.747-17.513L16.174 0zM.696 2.348v19.078l4.035.14-.035-6.679 2.487-2.4 2.626 9.078h3.565L10.087 9.722l4.957-5.444-3.496-1.339L4.73 9.443V1.322zm18.295 17.86-.99 2.331L20.12 24l2.088-1.235-.887-2.556z"/>
</g>
<g id="SVGRepo_iconCarrier">
<path d="m20.557 18.87 2.747-17.513L16.174 0zM.696 2.348v19.078l4.035.14-.035-6.679 2.487-2.4 2.626 9.078h3.565L10.087 9.722l4.957-5.444-3.496-1.339L4.73 9.443V1.322zm18.295 17.86-.99 2.331L20.12 24l2.088-1.235-.887-2.556z"/>
</g>
</svg>